<?xml version="1.0" encoding="UTF-8"?>
<svg width="100%" height="100%" version="1.1" xmlns="http://www.w3.org/2000/svg" xmlns:xlink="http://www.w3.org/1999/xlink">
    <!-- Generator: Sketch 43.1 (39012) - http://www.bohemiancoding.com/sketch -->
    <title>Group</title>
    <desc>Created with Sketch.</desc>
    <defs>
        <path d="M83.4300443,15.9000983 L95.566673,8.89301249 L95.566673,22.9071841 L83.4300443,15.9000983 Z M79.3051771,15.9000983 L67.1685484,22.9071841 L67.1685484,8.89301249 L79.3051771,15.9000983 Z M52.9694861,33.6687572 L65.1061148,26.6616714 L65.1061148,40.6758431 L52.9694861,33.6687572 Z M64.074898,24.7844278 L51.9382693,31.7915136 L51.9382693,17.777342 L64.074898,24.7844278 Z M52.9694861,15.9000983 L65.1061148,8.89301249 L65.1061148,22.9071841 L52.9694861,15.9000983 Z M64.074898,7.01576884 L51.9382693,14.0228547 L51.9382693,0.00868301924 L64.074898,7.01576884 Z M109.765735,33.6687572 L97.6291066,40.6758431 L97.6291066,26.6616714 L109.765735,33.6687572 Z M98.6603234,24.7844278 L110.796952,17.777342 L110.796952,31.7915136 L98.6603234,24.7844278 Z M109.765735,15.9000983 L97.6291066,22.9071841 L97.6291066,8.89301249 L109.765735,15.9000983 Z M98.6603234,7.01576884 L110.796952,0.00868301924 L110.796952,14.0228547 L98.6603234,7.01576884 Z M94.5354561,24.7844278 L82.3988275,31.7915136 L82.3988275,17.777342 L94.5354561,24.7844278 Z M64.074898,42.5530867 L51.9382693,49.5601725 L51.9382693,35.5460009 L64.074898,42.5530867 Z M68.1997652,24.7844278 L80.3363939,17.777342 L80.3363939,31.7915136 L68.1997652,24.7844278 Z M98.6603234,42.5530867 L110.796952,35.5460009 L110.796952,49.5601725 L98.6603234,42.5530867 Z" id="path-1"></path>
        <filter x="-8.6%" y="-4.2%" width="117.1%" height="108.4%" filterUnits="objectBoundingBox" id="filter-2">
            <feOffset dx="0" dy="2" in="SourceAlpha" result="shadowOffsetInner1"></feOffset>
            <feComposite in="shadowOffsetInner1" in2="SourceAlpha" operator="arithmetic" k2="-1" k3="1" result="shadowInnerInner1"></feComposite>
            <feColorMatrix values="0 0 0 0 0   0 0 0 0 0   0 0 0 0 10  0 0 0 0.6 0" type="matrix" in="shadowInnerInner1"></feColorMatrix>
        </filter>
    </defs>
    <g id="Page-1" stroke="none" stroke-width="1" fill="none" fill-rule="evenodd">
        <g id="512---Play-Store" transform="translate(-2.000000, -4.000000)">
            <g id="Group" transform="translate(2.000000, 4.000000)">
                <g id="Combined-Shape">
                    <use fill="#4990E2" fill-rule="evenodd" xlink:href="#path-1"></use>
                    <use fill="black" fill-opacity="1" filter="url(#filter-2)" xlink:href="#path-1"></use>
                </g>
                <path d="M11.0200869,56.4008724 L11.0200869,57.2999358 L5.99705872,57.2999358 L5.99705872,69.1050293 L5.09799531,69.1050293 L5.09799531,57.2999358 L0.0554222656,57.2999358 L0.0554222656,56.4008724 L11.0200869,56.4008724 Z M22.2779244,69.1050293 L23.157443,69.1050293 L23.157443,56.4008724 L22.2779244,56.4008724 L22.2779244,62.3034191 L14.7726994,62.3034191 L14.7726994,56.4008724 L13.873636,56.4008724 L13.873636,69.1050293 L14.7726994,69.1050293 L14.7726994,63.2024826 L22.2779244,63.2024826 L22.2779244,69.1050293 Z M27.8482086,69.1050293 L27.8482086,56.4008724 L26.96869,56.4008724 L26.96869,69.1050293 L27.8482086,69.1050293 Z M38.5001555,62.9483994 C39.0995341,63.2871786 39.5653486,63.700874 39.8976128,64.1894978 C40.229877,64.6781217 40.3960066,65.2025701 40.3960066,65.7628588 C40.3960066,66.2449677 40.2787387,66.7042672 40.0441992,67.1407712 C39.8096598,67.5772752 39.4708856,67.9583961 39.0278667,68.2841453 C38.1157688,68.9356438 37.0538422,69.2613882 35.842055,69.2613882 C35.2426764,69.2613882 34.6693663,69.1766946 34.1221076,69.007305 C33.5748489,68.8379154 33.0862324,68.5968646 32.6562434,68.2841453 C31.9135351,67.7368866 31.4640079,67.0658532 31.3076482,66.2710251 L32.1480771,65.8019485 C32.187167,66.5185968 32.5389709,67.1049367 33.2034993,67.5609856 C33.5422786,67.821585 33.9396867,68.0202891 34.3957356,68.1571037 C34.8517846,68.2939184 35.3338862,68.3623247 35.842055,68.3623247 C36.8844526,68.3623247 37.7639623,68.0952144 38.4806107,67.5609856 C39.1711991,67.0528168 39.5164881,66.4534472 39.5164881,65.7628588 C39.5164881,65.3589297 39.3894478,64.9810663 39.1353634,64.6292571 C38.881279,64.2774479 38.5262176,63.9777631 38.0701687,63.7301937 C37.6401797,63.5086842 36.871423,63.3327822 35.7638756,63.2024826 C35.6726658,63.1894526 35.343664,63.1373335 34.7768603,63.0461237 C34.2100566,62.9549139 33.7246975,62.8115864 33.3207685,62.6161368 C32.6823,62.3034176 32.1806537,61.8897222 31.8158145,61.3750384 C31.4509754,60.8603546 31.2685585,60.3033318 31.2685585,59.7039532 C31.2685585,59.2218443 31.3890839,58.7690597 31.6301384,58.3455856 C31.8711928,57.9221116 32.2132244,57.5475056 32.6562434,57.2217564 C33.0862324,56.9090371 33.5748489,56.6679863 34.1221076,56.4985967 C34.6693663,56.3292071 35.2426764,56.2445135 35.842055,56.2445135 C37.0538422,56.2445135 38.1157688,56.5702579 39.0278667,57.2217564 C39.7836049,57.795075 40.2266172,58.4595935 40.3569169,59.2153318 L39.5164881,59.6844083 C39.5034581,59.3586591 39.4089923,59.0459445 39.2330877,58.7462552 C39.0571831,58.4465659 38.8063599,58.1729406 38.4806107,57.9253712 C38.1288015,57.6647718 37.7248785,57.4660678 37.2688296,57.3292531 C36.8127806,57.1924384 36.3371939,57.1240321 35.842055,57.1240321 C35.3469162,57.1240321 34.868072,57.1924384 34.405508,57.3292531 C33.9429441,57.4660678 33.5422786,57.6647718 33.2034993,57.9253712 C32.8647201,58.1729406 32.6041247,58.4498233 32.4217051,58.7560276 C32.2392855,59.0622319 32.1480771,59.3782039 32.1480771,59.7039532 C32.1480771,60.1078822 32.2979195,60.5085478 32.5976088,60.9059619 C32.8972981,61.303376 33.2686467,61.6128331 33.7116656,61.8343426 C33.985295,61.9646423 34.2882372,62.0591081 34.6205015,62.117743 C34.9527657,62.1763779 35.3794908,62.2382693 35.9006896,62.3034191 L36.5847596,62.4011434 C36.9495987,62.4532633 37.3014026,62.5249271 37.6401818,62.6161368 C37.978961,62.7073466 38.2656161,62.8180997 38.5001555,62.9483994 Z" id="THIS" fill="#110914"></path>
                <path d="M58.455083,69.1050293 L58.455083,56.2445135 L51.9466457,65.5478654 L45.3600289,56.2445135 L45.3600289,69.1050293 L46.2395475,69.1050293 L46.2395475,59.0394281 L51.9466457,67.091909 L57.5755644,59.0589729 L57.5755644,69.1050293 L58.455083,69.1050293 Z M67.6607105,69.2418433 C66.5010432,69.2418433 65.4260869,68.9519308 64.4358092,68.3720972 C63.4455315,67.7922635 62.663745,67.0039622 62.0904263,66.0071695 C61.5171077,65.0103768 61.2304526,63.9256481 61.2304526,62.7529508 C61.2304526,61.5802536 61.5171077,60.4955249 62.0904263,59.4987322 C62.663745,58.5019395 63.4455315,57.7136382 64.4358092,57.1338045 C65.4260869,56.5539709 66.5010432,56.2640584 67.6607105,56.2640584 C68.8203778,56.2640584 69.8953342,56.5539709 70.8856119,57.1338045 C71.8758896,57.7136382 72.657676,58.5019395 73.2309947,59.4987322 C73.8043134,60.4955249 74.0909684,61.5802536 74.0909684,62.7529508 C74.0909684,63.9256481 73.8043134,65.0103768 73.2309947,66.0071695 C72.657676,67.0039622 71.8758896,67.7922635 70.8856119,68.3720972 C69.8953342,68.9519308 68.8203778,69.2418433 67.6607105,69.2418433 Z M67.6607105,57.1631218 C66.6574029,57.1631218 65.7322889,57.413945 64.8853409,57.9155988 C64.0383928,58.4172526 63.364102,59.0948009 62.8624482,59.9482639 C62.3607944,60.8017269 62.1099712,61.7366132 62.1099712,62.7529508 C62.1099712,63.7692885 62.3607944,64.7041748 62.8624482,65.5576378 C63.364102,66.4111008 64.0383928,67.0886491 64.8853409,67.5903029 C65.7322889,68.0919567 66.6574029,68.3427799 67.6607105,68.3427799 C68.6640182,68.3427799 69.5891322,68.0919567 70.4360802,67.5903029 C71.2830282,67.0886491 71.9540616,66.4111008 72.4492004,65.5576378 C72.9443393,64.7041748 73.191905,63.7692885 73.191905,62.7529508 C73.191905,61.7366132 72.9443393,60.8017269 72.4492004,59.9482639 C71.9540616,59.0948009 71.2830282,58.4172526 70.4360802,57.9155988 C69.5891322,57.413945 68.6640182,57.1631218 67.6607105,57.1631218 Z M80.4821366,69.1050293 L76.8272484,69.1050293 L76.8272484,56.4008724 L80.4821366,56.4008724 C81.3812045,56.4008724 82.21511,56.567002 82.9838782,56.8992662 C83.7526464,57.2315305 84.4171649,57.7038598 84.9774536,58.3162684 C85.5116824,58.902617 85.9221203,59.5736504 86.2087796,60.3293886 C86.4954389,61.0851268 86.6387664,61.886458 86.6387664,62.733406 C86.6387664,63.580354 86.4954389,64.3816851 86.2087796,65.1374234 C85.9221203,65.8931616 85.5116824,66.5707099 84.9774536,67.1700885 C84.4171649,67.795527 83.7526464,68.2743712 82.9838782,68.6066354 C82.21511,68.9388997 81.3812045,69.1050293 80.4821366,69.1050293 Z M77.7067669,57.2999358 L77.7067669,68.2255107 L80.4821366,68.2255107 C82.0587629,68.2255107 83.3421957,67.6717453 84.3324734,66.5641979 C84.7885223,66.0690591 85.1370687,65.4924916 85.3781232,64.8344781 C85.6191776,64.1764646 85.739703,63.4761143 85.739703,62.733406 C85.739703,62.0037277 85.6191776,61.3098922 85.3781232,60.6518787 C85.1370687,59.9938653 84.7885223,59.4172978 84.3324734,58.9221589 C83.3291657,57.8406714 82.0457329,57.2999358 80.4821366,57.2999358 L77.7067669,57.2999358 Z M97.7207002,69.1050293 L97.7207002,68.186421 L90.3718341,68.186421 L90.3718341,63.2024826 L96.0984771,63.2024826 L96.0984771,62.3034191 L90.3718341,62.3034191 L90.3718341,57.2999358 L97.7207002,57.2999358 L97.7207002,56.4008724 L89.4923155,56.4008724 L89.4923155,69.1050293 L97.7207002,69.1050293 Z M108.763544,69.1050293 L103.486433,62.6943163 L105.050022,62.6943163 C106.014239,62.6943163 106.796026,62.5705334 107.395404,62.322964 C107.838423,62.1144845 108.222802,61.7985125 108.548551,61.3750384 C108.8743,60.9515644 109.037172,60.48575 109.037172,59.9775812 C109.037172,59.5215322 108.90036,59.0882923 108.62673,58.6778482 C108.353101,58.2674042 107.962208,57.9318875 107.454039,57.6712881 C106.94587,57.4106887 106.35953,57.280391 105.695002,57.280391 L102.137838,57.280391 L102.137838,69.1050293 L101.258319,69.1050293 L101.258319,56.4008724 L105.695002,56.4008724 C106.29438,56.4008724 106.854661,56.4953383 107.375859,56.6842728 C107.897058,56.8732074 108.3531,57.1435752 108.743999,57.4953844 C109.121869,57.8341636 109.411781,58.2185419 109.613746,58.6485309 C109.81571,59.0785199 109.916691,59.5215322 109.916691,59.9775812 C109.916691,60.6942295 109.7017,61.3359459 109.271711,61.9027496 C108.841722,62.4695533 108.33356,62.8767337 107.747212,63.1243031 C107.343283,63.3067227 106.949132,63.4207332 106.564748,63.4663381 C106.180364,63.511943 105.773183,63.5347451 105.343194,63.5347451 L109.936236,69.1050293 L108.763544,69.1050293 Z M123.03129,69.3200227 L123.03129,56.4008724 L122.151771,56.4008724 L122.151771,66.7596465 L113.356586,56.2445135 L113.356586,69.1050293 L114.236104,69.1050293 L114.236104,58.7853449 L123.03129,69.3200227 Z" id="MODERN" fill="#4A90E2"></path>
                <path d="M131.362983,69.1050293 L127.708095,69.1050293 L127.708095,56.4008724 L131.362983,56.4008724 C132.262051,56.4008724 133.095956,56.567002 133.864725,56.8992662 C134.633493,57.2315305 135.298011,57.7038598 135.8583,58.3162684 C136.392529,58.902617 136.802967,59.5736504 137.089626,60.3293886 C137.376285,61.0851268 137.519613,61.886458 137.519613,62.733406 C137.519613,63.580354 137.376285,64.3816851 137.089626,65.1374234 C136.802967,65.8931616 136.392529,66.5707099 135.8583,67.1700885 C135.298011,67.795527 134.633493,68.2743712 133.864725,68.6066354 C133.095956,68.9388997 132.262051,69.1050293 131.362983,69.1050293 Z M128.587613,57.2999358 L128.587613,68.2255107 L131.362983,68.2255107 C132.939609,68.2255107 134.223042,67.6717453 135.21332,66.5641979 C135.669369,66.0690591 136.017915,65.4924916 136.25897,64.8344781 C136.500024,64.1764646 136.620549,63.4761143 136.620549,62.733406 C136.620549,62.0037277 136.500024,61.3098922 136.25897,60.6518787 C136.017915,59.9938653 135.669369,59.4172978 135.21332,58.9221589 C134.210012,57.8406714 132.926579,57.2999358 131.362983,57.2999358 L128.587613,57.2999358 Z M142.05402,65.8801279 L140.549066,69.1050293 L139.571823,69.1050293 L145.552549,56.2445135 L151.201013,69.1050293 L150.243315,69.1050293 L148.81654,65.8801279 L142.05402,65.8801279 Z M145.513459,58.4139926 L142.464462,65.0006094 L148.425643,65.0006094 L145.513459,58.4139926 Z M159.194859,63.7497385 L164.198342,56.4008724 L165.253765,56.4008724 L159.624846,64.7074365 L159.624846,69.1050293 L158.745327,69.1050293 L158.745327,64.7074365 L153.116409,56.4008724 L154.171831,56.4008724 L159.194859,63.7497385 Z" id="day" fill="#110914"></path>
            </g>
        </g>
    </g>
</svg>
